<?xml version="1.0" encoding="UTF-8"?>
<svg id="Layer_2" data-name="Layer 2" xmlns="http://www.w3.org/2000/svg" viewBox="0 0 306.81 306.82">
  <g id="Layer_1-2" data-name="Layer 1">
    <g>
      <g>
        <path d="M153.56,306.32c-19.67,0-38.92-3.72-57.21-11.07l7.53-16.56c15.9,6.28,32.6,9.46,49.66,9.46,22.75,0,45.35-5.88,65.36-17.01,4.44-2.47,8.82-5.25,13.03-8.25l12.14,13.65c-5.2,3.82-10.69,7.34-16.33,10.48-22.7,12.63-48.35,19.3-74.17,19.3Z"/>
        <path d="M231.85,263.54l11.48,12.91c-5.05,3.68-10.38,7.09-15.83,10.12-22.63,12.59-48.19,19.24-73.92,19.24-19.43,0-38.45-3.65-56.54-10.84l7.12-15.65c15.82,6.18,32.44,9.32,49.4,9.32,22.84,0,45.52-5.9,65.6-17.07,4.33-2.41,8.6-5.11,12.71-8.02m.15-1.34c-4.23,3.05-8.68,5.89-13.34,8.49-20.66,11.49-43.04,16.95-65.11,16.95-17.14,0-34.1-3.29-49.92-9.6l-7.95,17.47c18.32,7.43,37.99,11.31,57.88,11.31,25.23,0,50.8-6.23,74.41-19.37,5.92-3.29,11.53-6.92,16.83-10.84l-12.8-14.4h0Z"/>
      </g>
      <g>
        <path d="M89.81,292.45c-21.12-9.64-40-24.18-54.65-42.08l14.66-10.8c12.81,15.43,29.22,27.98,47.51,36.34l-7.52,16.54Z"/>
        <path d="M49.74,240.25c12.7,15.19,28.9,27.58,46.93,35.9l-7.11,15.63c-20.71-9.54-39.23-23.8-53.68-41.33l13.85-10.21m.17-1.36l-15.46,11.39c15.27,18.79,34.42,33.24,55.61,42.83l7.94-17.45c-18.28-8.27-34.83-20.67-48.09-36.77h0Z"/>
      </g>
      <g>
        <path d="M26.94,239.31c-2.57-3.79-4.97-7.68-7.13-11.57-4.05-7.28-7.53-14.95-10.35-22.81l16.95-6.58c2.51,7.08,5.64,13.99,9.29,20.56,1.79,3.21,3.77,6.45,5.9,9.62l-14.64,10.79Z"/>
        <path d="M26.1,199c2.49,6.94,5.57,13.71,9.15,20.15,1.72,3.1,3.62,6.21,5.65,9.26l-13.84,10.2c-2.45-3.65-4.75-7.38-6.82-11.1-3.96-7.11-7.37-14.6-10.16-22.28l16.01-6.22m.6-1.3l-17.88,6.94c2.82,7.93,6.32,15.74,10.55,23.34,2.32,4.17,4.81,8.18,7.45,12.04l15.45-11.38c-2.17-3.21-4.22-6.53-6.14-9.98-3.8-6.82-6.93-13.84-9.43-20.97h0Z"/>
      </g>
      <g>
        <path d="M210.72,31.49c-17.88-8.38-37.72-12.81-57.43-12.81-11.11,0-22.18,1.38-32.93,4.11l-5.1-17.46C127.65,2.12,140.44,.5,153.27,.5c22.52,0,45.18,5.09,65.57,14.73l-8.12,16.27Z"/>
        <path d="M153.27,1c22.27,0,44.69,5,64.9,14.46l-7.68,15.37c-17.83-8.28-37.58-12.65-57.2-12.65-10.99,0-21.95,1.35-32.58,4.01l-4.82-16.5c12.2-3.11,24.77-4.68,37.39-4.68M153.27,0c-12.89,0-25.87,1.63-38.64,4.97l5.38,18.42c11-2.83,22.18-4.21,33.27-4.21,19.97,0,39.69,4.47,57.66,12.97l8.57-17.16C198.89,5.16,176.22,0,153.27,0h0Z"/>
      </g>
      <g>
        <path d="M7.2,198.18C-2.9,165.3-1.49,129.5,11.19,97.31,24.1,64.51,48.21,36.98,79.08,19.81c9.31-5.18,19.18-9.4,29.34-12.54l5.1,17.45c-8.86,2.76-17.47,6.45-25.6,10.97C33.18,66.14,6.43,131.64,24.2,191.58l-17,6.6Z"/>
        <path d="M108.08,7.9l4.82,16.49c-8.73,2.75-17.21,6.4-25.23,10.86C32.87,65.74,6.02,131.24,23.59,191.28l-16.07,6.24C-2.38,164.89-.92,129.41,11.65,97.49c6.33-16.07,15.24-30.81,26.48-43.81,11.64-13.46,25.5-24.7,41.19-33.43,9.14-5.08,18.81-9.23,28.76-12.34m.67-1.26c-10.2,3.11-20.23,7.33-29.92,12.73C14.26,55.3-14.24,130.96,6.88,198.84l17.93-6.96c-17.73-59.06,7.25-124.54,63.35-155.75,8.42-4.68,17.13-8.36,25.98-11.07l-5.38-18.41h0Z"/>
      </g>
      <g>
        <path d="M256.69,239.93c35.59-42.51,41.4-103.54,14.43-152.02-10.67-19.19-25.99-35.59-44.3-47.48l8.17-16.35c21.57,13.58,39.55,32.59,52.02,54.99,31.2,56.08,23.9,126.15-18.12,174.57l-12.19-13.72Z"/>
        <path d="M235.19,24.81c21.3,13.52,39.05,32.35,51.38,54.52,15.57,27.98,21.88,59.52,18.26,91.22-3.5,30.65-15.92,59.09-35.95,82.34l-11.53-12.97c35.48-42.65,41.21-103.72,14.21-152.25-10.64-19.13-25.88-35.5-44.09-47.41l7.72-15.46m-.4-1.43l-8.61,17.24c17.95,11.56,33.41,27.58,44.51,47.54,27.88,50.12,20.23,110.38-14.66,151.78l12.86,14.46c41.41-47.36,50.9-117.43,18.55-175.57-13.06-23.48-31.38-42.18-52.66-55.47h0Z"/>
      </g>
    </g>
  </g>
</svg>