<?xml version="1.0" encoding="UTF-8"?>
<svg id="Layer_2" data-name="Layer 2" xmlns="http://www.w3.org/2000/svg" viewBox="0 0 497.55 497.54">
  <g id="Layer_1-2" data-name="Layer 1">
    <g>
      <g>
        <path d="M13.23,170.36c3.36-10.05,7.39-19.97,11.99-29.5C57.98,73.02,118.85,24.28,192.28,7.07l5.58,29.6c-63.95,15.38-116.97,58.1-145.54,117.27-3.62,7.5-6.87,15.35-9.65,23.33l-29.45-6.92Z"/>
        <path d="M191.89,7.68l5.4,28.62c-63.89,15.51-116.85,58.27-145.41,117.43-3.56,7.38-6.77,15.1-9.52,22.96l-28.47-6.69c3.32-9.85,7.28-19.57,11.8-28.92,16.59-34.36,40.1-63.64,69.89-87.03C123.68,31.96,156.97,15.94,191.89,7.68m.79-1.21C121.86,22.9,58.84,70.08,24.78,140.64c-4.77,9.89-8.82,19.93-12.19,30.08l30.42,7.14c2.76-7.99,6.01-15.91,9.77-23.71,29.61-61.33,84.21-102.47,145.67-117.11l-5.77-30.58h0Z"/>
      </g>
      <g>
        <path d="M305.9,38.22c-18.57-5.06-37.74-7.63-56.98-7.63-13.5,0-27.08,1.27-40.39,3.78l-5.58-29.57C218.11,1.95,233.58,.5,248.96,.5c22.48,0,44.85,3.07,66.5,9.14l-9.55,28.59Z"/>
        <path d="M248.96,0V1c22.26,0,44.41,3.02,65.85,8.98l-9.24,27.64c-18.47-4.99-37.53-7.52-56.66-7.52-13.36,0-26.81,1.24-39.99,3.69l-5.39-28.59c14.97-2.79,30.24-4.21,45.42-4.21V0M248.96,0c-15.7,0-31.3,1.49-46.59,4.41l5.76,30.55c13.38-2.55,27.04-3.86,40.79-3.86,19.09,0,38.35,2.52,57.31,7.73l9.87-29.53C293.9,3.03,271.32,0,248.96,0h0Z"/>
      </g>
      <g>
        <path d="M375.32,71.08c-10-7.11-20.67-13.41-31.72-18.75-5.46-2.63-11.19-5.11-17.05-7.35l9.54-28.56c7.07,2.67,13.99,5.63,20.59,8.81,12.27,5.92,24.15,12.91,35.31,20.78l-16.67,25.06Z"/>
        <path d="M336.4,17.07c6.89,2.61,13.63,5.51,20.06,8.61,12.1,5.84,23.82,12.72,34.84,20.46l-16.12,24.23c-9.9-7-20.45-13.22-31.37-18.49-5.33-2.57-10.92-4.99-16.64-7.19l9.23-27.62m-.62-1.3l-9.86,29.51c5.87,2.23,11.7,4.72,17.46,7.5,11.4,5.51,22.1,11.88,32.07,19l17.23-25.9c-11.15-7.89-23.08-14.97-35.78-21.1-6.96-3.36-14.01-6.35-21.12-9.01h0Z"/>
      </g>
      <g>
        <path d="M286.22,463.68c49.95-8.75,95.46-34.64,128.25-72.97l23.55,18.78c-37.53,44.26-89.8,74.05-147.3,83.96l-4.5-29.77Z"/>
        <path d="M414.54,391.4l22.77,18.15c-37.32,43.82-89.15,73.37-146.17,83.31l-4.35-28.78c49.72-8.82,95.02-34.6,127.75-72.69m-.13-1.38c-33.42,39.25-79.35,64.72-128.75,73.26l4.65,30.75c57.03-9.71,110.04-39.15,148.43-84.61l-24.33-19.4h0Z"/>
      </g>
      <g>
        <path d="M421.34,382.24c9.24-11.97,17.27-24.97,23.86-38.63,44.14-91.42,18.41-203.2-61.15-265.98l16.72-25.13c44.27,34.22,75.95,83.15,89.24,137.85,13.51,55.62,7.22,114.7-17.71,166.34-7.57,15.68-16.8,30.58-27.43,44.31l-23.53-18.76Z"/>
        <path d="M400.9,53.22c43.96,34.13,75.42,82.83,88.63,137.25,6.63,27.28,8.57,55.21,5.79,83.02-2.88,28.78-10.78,56.7-23.47,82.99-7.48,15.49-16.58,30.23-27.06,43.82l-22.75-18.14c9.14-11.89,17.08-24.78,23.62-38.33,44.17-91.49,18.53-203.33-60.93-266.3l16.17-24.3m-.24-1.45l-17.27,25.97c78.63,61.77,106.63,171.91,61.37,265.65-6.79,14.07-14.91,27.06-24.11,38.93l24.31,19.38c10.62-13.65,19.98-28.6,27.8-44.8,52.1-107.92,19.26-234.85-72.09-305.14h0Z"/>
      </g>
      <g>
        <path d="M248.57,497.04c-37.49,0-73.73-8.32-107.72-24.73-46.97-22.67-84.96-58.77-109.86-104.39C6.71,323.44-3.38,273.43,1.8,223.26l29.58,6.95c-7.63,89.55,41.58,175.92,122.55,215.01,29.87,14.42,61.72,21.73,94.66,21.73,2.83,0,5.7-.06,8.53-.17l4.53,29.92c-4.34,.23-8.74,.35-13.08,.35Z"/>
        <path d="M2.24,223.87l28.6,6.72c-7.46,89.61,41.84,175.95,122.87,215.07,29.94,14.45,61.86,21.78,94.88,21.78,2.69,0,5.41-.05,8.1-.15l4.38,28.93c-4.16,.21-8.36,.32-12.5,.32-37.41,0-73.58-8.3-107.5-24.68-46.87-22.63-84.78-58.65-109.64-104.18-11.97-21.92-20.55-45.46-25.5-69.95C1,273.35-.24,248.51,2.24,223.87m-.88-1.23c-10.71,101.45,42.12,203.22,139.27,250.12,34.84,16.82,71.67,24.78,107.93,24.78,4.57,0,9.12-.13,13.66-.38l-4.68-30.9c-2.98,.12-5.97,.18-8.95,.18-31.73,0-63.95-6.96-94.45-21.68C70.39,404.33,24.29,317.28,31.92,229.82l-30.55-7.18h0Z"/>
      </g>
    </g>
  </g>
</svg>