<?xml version="1.0" encoding="UTF-8"?>
<svg id="Layer_2" data-name="Layer 2" xmlns="http://www.w3.org/2000/svg" viewBox="0 0 400 400">
  <g id="Layer_1-2" data-name="Layer 1">
    <g>
      <g>
        <path d="M335.82,88.86C302.3,47.95,252.83,24.5,200,24.5c-6.67,0-13.46,.39-20.19,1.16l-5.24-23.55c8.41-1.07,16.97-1.61,25.44-1.61,60.51,0,117.03,27,155.14,74.08l-19.32,14.27Z"/>
        <path d="M200,1c60.19,0,116.41,26.77,154.42,73.49l-18.52,13.68C302.3,47.38,252.82,24,200,24c-6.54,0-13.2,.38-19.8,1.12l-5.03-22.57c8.21-1.02,16.56-1.54,24.83-1.54m0-1c-8.83,0-17.52,.58-26.04,1.69l5.46,24.52c6.75-.79,13.62-1.21,20.58-1.21,54.76,0,103.64,25.16,135.73,64.54l20.13-14.87C319.2,29.14,263.01,0,200,0h0Z"/>
      </g>
      <g>
        <path d="M372.52,167.66c-4.8-25.77-15.58-50.55-31.19-71.72l19.31-14.26c18.05,24.47,30.4,53.12,35.74,82.93l-23.85,3.05Z"/>
        <path d="M360.52,82.37c17.74,24.17,29.91,52.41,35.26,81.8l-22.86,2.92c-4.83-25.52-15.5-50.05-30.9-71.06l18.5-13.67m.21-1.4l-20.11,14.85c15.59,21.01,26.58,45.63,31.49,72.39l24.84-3.18c-5.48-31.09-18.15-59.7-36.22-84.06h0Z"/>
      </g>
      <g>
        <path d="M373.03,229.44c1.64-9.7,2.47-19.6,2.47-29.44,0-4.84-.21-9.83-.63-14.83l23.83-3.05c.53,6.01,.81,12.02,.81,17.88,0,10.92-.9,21.93-2.69,32.73l-23.78-3.29Z"/>
        <path d="M398.24,182.68c.5,5.83,.76,11.65,.76,17.32,0,10.73-.88,21.54-2.6,32.16l-22.79-3.15c1.59-9.57,2.39-19.32,2.39-29.02,0-4.7-.2-9.54-.59-14.4l22.84-2.92m.9-1.12l-24.82,3.17c.43,5.03,.67,10.12,.67,15.27,0,10.18-.88,20.16-2.55,29.87l24.78,3.42c1.81-10.83,2.77-21.95,2.77-33.29,0-6.22-.3-12.37-.85-18.44h0Z"/>
      </g>
      <g>
        <path d="M149.71,393.11c-45.07-11.71-84.84-39.09-112.08-77.17l19.82-13.56c23.79,33.07,58.41,56.94,97.58,67.3l-5.32,23.43Z"/>
        <path d="M57.33,303.07c23.75,32.82,58.17,56.56,97.11,66.97l-5.1,22.46c-44.59-11.7-83.94-38.8-111.01-76.43l18.99-12.99m.24-1.38l-20.64,14.12c26.97,37.9,66.82,66,113.16,77.91l5.54-24.4c-40.11-10.48-74.6-34.83-98.06-67.62h0Z"/>
      </g>
      <g>
        <path d="M200,399.5c-13.96,0-27.94-1.46-41.56-4.35l5.32-23.41c11.88,2.49,24.07,3.76,36.24,3.76,81.65,0,153.62-57.69,171.31-137.25l23.85,3.3c-9.31,43.96-33.65,83.95-68.57,112.65-35.54,29.21-80.5,45.3-126.58,45.3Z"/>
        <path d="M371.69,238.81l22.86,3.16c-9.37,43.64-33.59,83.33-68.29,111.84-17.42,14.32-36.95,25.48-58.04,33.18-21.82,7.97-44.78,12.01-68.23,12.01-13.76,0-27.53-1.42-40.96-4.23l5.09-22.43c11.76,2.43,23.82,3.67,35.86,3.67,81.72,0,153.78-57.64,171.69-137.19m-.78-1.12c-17.24,78.53-87.21,137.31-170.92,137.31-12.56,0-24.81-1.33-36.62-3.85l-5.54,24.38c13.59,2.92,27.69,4.47,42.16,4.47,96.36,0,176.79-68.15,195.76-158.88l-24.84-3.43h0Z"/>
      </g>
      <g>
        <path d="M25.01,295.86C8.97,266.64,.5,233.51,.5,200,.5,116.21,53.35,40.88,132.07,12.38l5.27,23.66C69.83,61.85,24.5,127.69,24.5,200c0,28.65,7.06,57.07,20.43,82.23l-19.92,13.63Z"/>
        <path d="M131.71,13.04l5.05,22.68C69.28,61.72,24,127.62,24,200c0,28.58,7.01,56.94,20.28,82.07l-19.1,13.06C9.36,266.11,1,233.24,1,200c0-41.81,12.82-81.82,37.08-115.7,11.68-16.32,25.71-30.74,41.7-42.88,15.85-12.03,33.32-21.58,51.93-28.38m.73-1.33C55.23,39.42,0,113.26,0,200c0,35.03,9.02,67.95,24.84,96.58l20.74-14.19c-13.13-24.55-20.58-52.6-20.58-82.39,0-74.79,46.92-138.6,112.92-163.66l-5.48-24.63h0Z"/>
      </g>
    </g>
  </g>
</svg>