<?xml version="1.0" encoding="UTF-8"?>
<svg id="Layer_2" data-name="Layer 2" xmlns="http://www.w3.org/2000/svg" viewBox="0 0 645 431.28">
  <defs>
    <style>
      .cls-1 {
        fill: #fff;
      }
    </style>
  </defs>
  <g id="Layer_1-2" data-name="Layer 1">
    <g>
      <path class="cls-1" d="M621.5,322.5c-.28-164.91-134.53-299-299.5-299S22.78,157.59,22.5,322.5H.5C.5,236.49,33.99,155.63,94.81,94.81S236.49,.5,322.5,.5s166.87,33.49,227.69,94.31c60.82,60.82,94.31,141.68,94.31,227.69h-23Z"/>
      <path class="cls-1" d="M322.5,1c43.4,0,85.51,8.5,125.14,25.26,38.28,16.19,72.67,39.37,102.19,68.9s52.71,63.91,68.9,102.19c16.7,39.48,25.2,81.42,25.26,124.64h-22c-.54-164.96-134.91-299-300-299S22.54,157.04,22,322H1c.07-43.23,8.56-85.16,25.26-124.64,16.19-38.28,39.37-72.67,68.9-102.19,29.53-29.53,63.91-52.71,102.19-68.9C236.99,9.5,279.1,1,322.5,1m0-1C144.39,0,0,144.39,0,322.5c0,.17,0,.33,0,.5H23C23,157.87,156.87,24,322,24s299,133.87,299,299h23.99c0-.17,0-.33,0-.5C645,144.39,500.61,0,322.5,0h0Z"/>
    </g>
    <g>
      <path class="cls-1" d="M86.66,399.24c-18.88-64.34-11.6-132.17,20.52-191.04,32.13-58.89,85.28-101.75,149.64-120.67,23.16-6.81,47.04-10.26,70.95-10.26,53.13,0,106.07,17.46,149.08,49.16,44.4,32.73,76.13,78.07,91.75,131.13l-17.01,5c-29.23-98.62-121.3-167.46-224.09-167.46-22.26,0-44.49,3.21-66.05,9.55-59.92,17.62-109.4,57.51-139.31,112.34-29.83,54.68-36.65,117.69-19.21,177.47l-16.26,4.78Z"/>
      <path class="cls-1" d="M327.77,77.78c26.76,0,53.26,4.3,78.75,12.77,25.13,8.35,48.7,20.56,70.03,36.29,21.56,15.9,40.32,34.99,55.73,56.77,15.83,22.36,27.84,47.12,35.7,73.62l-16.05,4.72c-29.44-98.58-121.59-167.34-224.43-167.34-22.31,0-44.58,3.22-66.19,9.57-123.65,36.35-194.8,166.27-159,289.95l-15.3,4.5c-9.41-32.28-12.25-65.44-8.45-98.58,3.69-32.2,13.47-63.02,29.07-91.59,15.59-28.58,36.21-53.48,61.29-74.01,25.96-21.26,55.59-36.87,88.05-46.42,23.12-6.8,46.94-10.24,70.81-10.24m0-1c-23.5,0-47.4,3.32-71.09,10.28C123.33,126.26,47.01,266.14,86.21,399.49c.04,.13,.08,.25,.11,.37l17.21-5.06c-36.35-123.63,34.41-253.32,158.05-289.67,21.96-6.46,44.13-9.53,65.91-9.53,100.86,0,193.86,65.91,223.75,167.58l17.96-5.28c-.04-.13-.07-.25-.11-.38-32.24-109.66-132.56-180.75-241.34-180.75h0Z"/>
    </g>
    <g>
      <path class="cls-1" d="M496.66,424.72c43.24-90.24,5.18-198.89-85-242.4-24.91-12.02-51.45-18.11-78.9-18.11-69.27,0-133.48,40.19-163.73,102.44l-11.67-5.63c16.26-33.63,41.6-61.69,73.26-81.17,30.89-19,66.35-29.04,102.54-29.04,29.45,0,57.93,6.54,84.65,19.43,46.95,22.65,82.26,62.22,99.44,111.44,17.16,49.15,14.17,102.03-8.4,148.94l-12.21-5.89Z"/>
      <path class="cls-1" d="M333.17,151.31c29.37,0,57.78,6.52,84.44,19.38,23.67,11.42,44.39,27.13,61.59,46.7,16.62,18.9,29.26,40.59,37.6,64.45,8.33,23.87,11.93,48.71,10.69,73.85-1.27,25.79-7.61,50.77-18.84,74.25l-11.31-5.46c20.77-43.65,23.44-92.78,7.49-138.46-16.06-45.99-49.06-82.98-92.94-104.15-24.98-12.05-51.6-18.16-79.12-18.16-69.29,0-133.54,40.11-163.96,102.28l-10.77-5.19c16.23-33.34,41.41-61.17,72.86-80.51,30.81-18.95,66.18-28.97,102.28-28.97m0-1c-72.75,0-142.61,40.76-176.34,110.67-.04,.09-.08,.18-.13,.27l12.56,6.06c31.27-64.82,96.05-102.61,163.49-102.61,26.44,0,53.28,5.8,78.69,18.06,90.22,43.53,128.08,151.96,84.55,242.18l13.11,6.32c.04-.09,.09-.18,.14-.27,46.95-97.31,6.12-214.26-91.19-261.21-27.4-13.22-56.36-19.48-84.87-19.48h0Z"/>
    </g>
  </g>
</svg>