<?xml version="1.0" encoding="UTF-8"?>
<svg id="Layer_2" data-name="Layer 2" xmlns="http://www.w3.org/2000/svg" viewBox="0 0 701 701">
  <defs>
    <style>
      .cls-1, .cls-2 {
        fill: #fff;
      }

      .cls-2 {
        stroke: #fff;
        stroke-miterlimit: 10;
        stroke-width: 15px;
      }
    </style>
  </defs>
  <g id="Layer_1-2" data-name="Layer 1">
    <g>
      <g>
        <path class="cls-1" d="M203.5,700C91.84,700,1,609.16,1,497.5V203.5C1,91.84,91.84,1,203.5,1H497.5c111.66,0,202.5,90.84,202.5,202.5V497.5c0,111.66-90.84,202.5-202.5,202.5H203.5Zm12.5-622c-76.09,0-138,61.91-138,138V485c0,76.09,61.91,138,138,138H485c76.09,0,138-61.91,138-138V216c0-76.09-61.91-138-138-138H216Z"/>
        <path class="cls-1" d="M497.5,1.5c27.27,0,53.72,5.34,78.63,15.87,24.05,10.17,45.66,24.74,64.21,43.29s33.12,40.15,43.29,64.21c10.53,24.9,15.87,51.36,15.87,78.63V497.5c0,27.27-5.34,53.72-15.87,78.63-10.17,24.05-24.74,45.66-43.29,64.21s-40.15,33.12-64.21,43.29c-24.9,10.53-51.36,15.87-78.63,15.87H203.5c-27.27,0-53.72-5.34-78.63-15.87-24.05-10.17-45.66-24.74-64.21-43.29s-33.12-40.15-43.29-64.21c-10.53-24.9-15.87-51.36-15.87-78.63V203.5c0-27.27,5.34-53.72,15.87-78.63,10.17-24.05,24.74-45.66,43.29-64.21S100.82,27.55,124.87,17.37C149.78,6.84,176.23,1.5,203.5,1.5H497.5M216,623.5H485c76.37,0,138.5-62.13,138.5-138.5V216c0-76.37-62.13-138.5-138.5-138.5H216c-76.37,0-138.5,62.13-138.5,138.5V485c0,76.37,62.13,138.5,138.5,138.5M497.5,.5H203.5C91.39,.5,.5,91.39,.5,203.5V497.5c0,112.11,90.89,203,203,203H497.5c112.11,0,203-90.89,203-203V203.5C700.5,91.39,609.61,.5,497.5,.5h0ZM216,622.5c-75.94,0-137.5-61.56-137.5-137.5V216c0-75.94,61.56-137.5,137.5-137.5H485c75.94,0,137.5,61.56,137.5,137.5V485c0,75.94-61.56,137.5-137.5,137.5H216Z"/>
      </g>
      <path class="cls-2" d="M274.84,415.85l5.47,37.5,8.01-33.79,56.25-198.44h31.64l54.88,198.44,7.81,34.38,6.05-38.28,44.14-194.53h37.7l-68.95,284.38h-34.18l-58.59-207.23-4.49-21.68-4.49,21.68-60.74,207.23h-34.18L192.41,221.12h37.5l44.92,194.73Z"/>
    </g>
  </g>
</svg>